<svg xmlns="http://www.w3.org/2000/svg" data-name="Layer 1" viewBox="0 0 100 100">
  <path fill="goldenrod"
    d="M90.16 16.73H47.7a6.85 6.85 0 0 0-6.85 6.84V36.9h-31A6.85 6.85 0 0 0 3 43.74v23.11a6.85 6.85 0 0 0 6.84 6.84H22.7l7.26 9a1.48 1.48 0 0 0 1.14.54 1.43 1.43 0 0 0 1.13-.55l7.21-9H52.3a6.85 6.85 0 0 0 6.85-6.84V53.53h1.4l7.27 9a1.45 1.45 0 0 0 1.18.57 1.46 1.46 0 0 0 1.14-.55l7.21-9h12.81A6.85 6.85 0 0 0 97 46.68V23.57a6.85 6.85 0 0 0-6.84-6.84ZM56.24 66.85a4 4 0 0 1-3.94 3.94H38.74a1.45 1.45 0 0 0-1.13.54l-6.52 8.16-6.56-8.16a1.48 1.48 0 0 0-1.14-.54H9.84a3.94 3.94 0 0 1-3.93-3.94V43.74a3.93 3.93 0 0 1 3.93-3.93H52.3a3.94 3.94 0 0 1 3.94 3.93Zm37.85-20.17a3.94 3.94 0 0 1-3.93 3.94H76.6a1.46 1.46 0 0 0-1.14.55L69 59.32l-6.57-8.16a1.46 1.46 0 0 0-1.13-.54h-2.1v-6.88a6.85 6.85 0 0 0-6.9-6.84h-8.54V23.57a3.94 3.94 0 0 1 3.94-3.93h42.46a3.93 3.93 0 0 1 3.93 3.93Z" />
  <path fill="goldenrod"
    d="m43.37 51.66-7.62-1-3.47-6.86A1.55 1.55 0 0 0 31 43a1.46 1.46 0 0 0-1.29.83l-3.33 6.93-7.59 1.18a1.46 1.46 0 0 0-.79 2.47l5.56 5.3-1.25 7.59a1.45 1.45 0 0 0 2.13 1.51l6.76-3.65 6.8 3.51a1.45 1.45 0 0 0 2.09-1.56l-1.38-7.56 5.45-5.42a1.46 1.46 0 0 0-.83-2.47zM36.16 58a1.47 1.47 0 0 0-.41 1.29l1 5.42-4.9-2.51a1.46 1.46 0 0 0-1.35 0l-4.84 2.61.87-5.43a1.46 1.46 0 0 0-.43-1.28l-4-3.8 5.43-.85a1.45 1.45 0 0 0 1.09-.81l2.38-5 2.49 4.91a1.48 1.48 0 0 0 1.1.79l5.46.73zm47.29-28h-29a1.45 1.45 0 1 0 0 2.9h29a1.45 1.45 0 0 0 0-2.9zm0 8H61.7a1.46 1.46 0 0 0 0 2.91h21.75a1.46 1.46 0 0 0 0-2.91z" />
</svg>